<svg xmlns="http://www.w3.org/2000/svg" version="1.1" xmlns:xlink="http://www.w3.org/1999/xlink" xmlns:svgjs="http://svgjs.dev/svgjs" width="1000" height="260" viewBox="0 0 1000 260"><g transform="matrix(1,0,0,1,-0.6060606060606233,0.1516744906669203)"><svg viewBox="0 0 396 103" data-background-color="#b19dd0" preserveAspectRatio="xMidYMid meet" height="260" width="1000" xmlns="http://www.w3.org/2000/svg" xmlns:xlink="http://www.w3.org/1999/xlink"><g id="tight-bounds" transform="matrix(1,0,0,1,0.2400000000000091,-0.06008561375460886)"><svg viewBox="0 0 395.52 103.12017138509783" height="103.12017138509783" width="395.52"><g><svg viewBox="0 0 669.9001650294948 174.65670466410506" height="103.12017138509783" width="395.52"><g transform="matrix(1,0,0,1,272.4025650294949,0)"><svg viewBox="0 0 397.4975999999999 174.65670466410506" height="174.65670466410506" width="397.4975999999999"><g><svg viewBox="0 0 397.4975999999999 174.65670466410506" height="174.65670466410506" width="397.4975999999999"><g><rect width="397.4975999999999" height="10.21813642366707" x="0" y="125.34400773020876" fill="#000000" opacity="1" stroke-width="0" stroke="transparent" fill-opacity="1" class="rect-o-0" data-fill-palette-color="primary" rx="1%" id="o-0" data-palette-color="#000000"></rect></g><g transform="matrix(1,0,0,1,0.9887999999999693,0)"><svg viewBox="0 0 395.52 113.30693602693603" height="113.30693602693603" width="395.52"><g transform="matrix(1,0,0,1,0,0)"><svg width="395.52" viewBox="2 -35.63999938964844 174.00999450683594 49.849998474121094" height="113.30693602693603" data-palette-color="#000000"><path d="M22.71-10.35L17.97-11.23 17.43-13.43Q18.41-13.57 22.02-13.89 25.63-14.21 26.56-14.4L26.56-14.4 26.56 1.12 22.75 1.9Q22.71 1.42 22.71-0.42 22.71-2.25 22.66-2.78L22.66-2.78Q22.66-2.69 22.31-2.22 21.97-1.76 21.24-1.07 20.51-0.39 19.53 0.24 18.55 0.88 17.04 1.32 15.53 1.76 13.87 1.76L13.87 1.76Q2 1.76 2-16.7L2-16.7Q2-19.87 2.49-22.88 2.98-25.88 4.15-28.91 5.32-31.93 7.69-33.79 10.06-35.64 13.33-35.64L13.33-35.64Q16.16-35.64 19.19-34.67 22.22-33.69 24.37-32.23L24.37-32.23 22.41-29.98Q18.6-32.81 14.89-32.81L14.89-32.81Q12.45-32.81 10.69-31.64 8.94-30.47 8.03-28.81 7.13-27.15 6.62-24.61 6.1-22.07 5.98-20.21 5.86-18.36 5.86-15.87L5.86-15.87Q5.86-9.91 8.06-6.13 10.25-2.34 13.77-2.34L13.77-2.34Q15.28-2.34 16.72-2.83 18.16-3.32 19.19-4 20.21-4.69 21.04-5.42 21.88-6.15 22.29-6.64 22.71-7.13 22.71-7.23L22.71-7.23 22.71-10.35ZM30.52-10.4L30.52-10.4Q30.52-12.35 30.93-14.75 31.35-17.14 32.18-19.78 33.01-22.41 34.67-24.17 36.33-25.93 38.52-25.93L38.52-25.93Q43.21-25.93 46.04-21.7 48.87-17.48 48.87-12.3L48.87-12.3Q48.87-10.11 48.41-7.93 47.95-5.76 46.97-3.66 45.99-1.56 44.16-0.17 42.33 1.22 39.89 1.42L39.89 1.42Q35.4 0.83 32.96-2.42 30.52-5.66 30.52-10.4ZM38.82-23.39L38.82-23.39Q37.11-23.19 35.94-20.26 34.76-17.33 34.42-14.58 34.08-11.82 34.08-9.72L34.08-9.72Q34.08-6.98 35.76-4.66 37.45-2.34 39.55-2.34L39.55-2.34Q41.06-2.34 42.28-3.52 43.5-4.69 44.21-6.42 44.92-8.15 45.29-9.91 45.65-11.67 45.65-13.04L45.65-13.04Q45.65-17.04 43.85-20.02 42.04-23 38.82-23.39ZM65.91-23.54L65.91-23.54 65.42-21.58Q60.69-23.54 58.05-23.54L58.05-23.54Q55.71-23.54 54.76-22.83 53.8-22.12 53.8-19.82L53.8-19.82Q53.8-17.97 55.15-16.75 56.49-15.53 58.39-14.82 60.3-14.11 62.23-13.31 64.16-12.5 65.5-10.94 66.84-9.38 66.84-7.08L66.84-7.08Q66.84-3.96 64.55-1.61 62.25 0.73 58.59 0.78L58.59 0.78Q55.9 0.78 53.56-0.34 51.22-1.46 49.85-3.17L49.85-3.17 51.26-4.64Q51.85-4.39 53-3.86 54.15-3.32 54.63-3.15 55.12-2.98 56.07-2.78 57.03-2.59 58.1-2.59L58.1-2.59Q60.4-2.59 61.86-3.61 63.33-4.64 63.33-6.49L63.33-6.49Q63.33-7.71 62.64-8.57 61.96-9.42 60.83-9.96 59.71-10.5 58.37-10.99 57.03-11.47 55.68-12.08 54.34-12.7 53.22-13.55 52.09-14.4 51.41-15.87 50.73-17.33 50.73-19.34L50.73-19.34Q50.73-22.27 52.31-24.24 53.9-26.22 56.78-26.22L56.78-26.22Q57.91-26.22 59.32-25.88 60.74-25.54 61.57-25.24 62.4-24.95 64.03-24.29 65.67-23.63 65.91-23.54ZM84.86-23.54L84.86-23.54 84.37-21.58Q79.63-23.54 76.99-23.54L76.99-23.54Q74.65-23.54 73.7-22.83 72.75-22.12 72.75-19.82L72.75-19.82Q72.75-17.97 74.09-16.75 75.43-15.53 77.34-14.82 79.24-14.11 81.17-13.31 83.1-12.5 84.44-10.94 85.78-9.38 85.78-7.08L85.78-7.08Q85.78-3.96 83.49-1.61 81.19 0.73 77.53 0.78L77.53 0.78Q74.85 0.78 72.5-0.34 70.16-1.46 68.79-3.17L68.79-3.17 70.21-4.64Q70.79-4.39 71.94-3.86 73.09-3.32 73.58-3.15 74.06-2.98 75.02-2.78 75.97-2.59 77.04-2.59L77.04-2.59Q79.34-2.59 80.8-3.61 82.27-4.64 82.27-6.49L82.27-6.49Q82.27-7.71 81.58-8.57 80.9-9.42 79.78-9.96 78.65-10.5 77.31-10.99 75.97-11.47 74.63-12.08 73.28-12.7 72.16-13.55 71.04-14.4 70.35-15.87 69.67-17.33 69.67-19.34L69.67-19.34Q69.67-22.27 71.26-24.24 72.84-26.22 75.72-26.22L75.72-26.22Q76.85-26.22 78.26-25.88 79.68-25.54 80.51-25.24 81.34-24.95 82.98-24.29 84.61-23.63 84.86-23.54ZM89.83-25.1L89.83-25.1 92.08-24.61Q92.47-20.61 92.76-12.04 93.06-3.47 93.15-1.42L93.15-1.42Q92.71 0.1 91.45 0.1L91.45 0.1Q90.57 0.1 89.76-0.61 88.95-1.32 88.76-2.34L88.76-2.34Q88.86-4.35 89.15-12.77 89.44-21.19 89.83-25.1ZM90.52-33.84L90.52-33.84Q91.84-33.84 92.71-32.69 93.59-31.54 93.59-30.08L93.59-30.08Q93.59-29 93.08-28.34 92.57-27.69 91.69-27.69L91.69-27.69Q90.32-27.69 89.54-28.81 88.76-29.93 88.76-31.45L88.76-31.45Q88.76-32.52 89.22-33.18 89.69-33.84 90.52-33.84ZM97.59 11.77L98.18-25.68 100.92-25.2Q100.92-24.17 100.96-23.68L100.96-23.68Q103.65-25.39 106.38-25.39L106.38-25.39Q110.83-25.39 113.32-21.58 115.81-17.77 115.81-12.94L115.81-12.94Q115.81-10.5 115.44-8.28 115.08-6.05 114.15-3.74 113.22-1.42 111.29-0.02 109.36 1.37 106.63 1.37L106.63 1.37Q104.04 1.37 101.65 0L101.65 0Q101.84 8.54 101.99 12.7L101.99 12.7Q101.55 14.21 100.28 14.21L100.28 14.21Q99.4 14.21 98.6 13.5 97.79 12.79 97.59 11.77L97.59 11.77ZM101.35-20.51L101.35-20.51 101.5-4.74Q102.09-3.56 103.31-2.86 104.53-2.15 105.99-2.15L105.99-2.15Q107.9-2.15 109.24-3.37 110.58-4.59 111.14-6.62 111.71-8.64 111.93-10.4 112.15-12.16 112.15-14.11L112.15-14.11Q112.15-22.41 106.53-22.41L106.53-22.41Q104.72-22.41 103.19-21.9 101.65-21.39 101.35-20.51ZM139.44-4.74L139.44-4.74 139.93-2.59Q137.78-1.81 133.55-0.85 129.33 0.1 127.28 0.1L127.28 0.1Q125.18 0.1 123.62-1.29 122.06-2.69 121.27-4.86 120.49-7.03 120.13-9.16 119.76-11.28 119.76-13.33L119.76-13.33Q119.76-25.54 130.8-25.54L130.8-25.54Q133.43-25.54 135.43-23.85 137.44-22.17 137.44-19.48L137.44-19.48Q137.44-18.02 136.63-16.89 135.82-15.77 134.68-15.11 133.53-14.45 131.75-13.92 129.97-13.38 128.6-13.13 127.23-12.89 125.33-12.6 123.42-12.3 122.69-12.16L122.69-12.16Q122.74-10.74 122.86-9.67 122.98-8.59 123.35-7.35 123.72-6.1 124.33-5.3 124.94-4.49 126.01-3.96 127.08-3.42 128.55-3.42L128.55-3.42Q130.31-3.42 132.85-3.74 135.39-4.05 137.36-4.39 139.34-4.74 139.44-4.74ZM122.89-15.19L122.89-15.19Q129.53-17.09 133.77-19.19L133.77-19.19Q133.43-20.8 132.85-21.53 132.26-22.27 131.09-22.27L131.09-22.27Q128.11-22.27 125.69-20.21 123.28-18.16 122.89-15.19ZM157.99-18.6L157.99-18.6 155.84-18.75Q154.82-21.48 152.38-21.48L152.38-21.48Q151.3-21.48 150.1-21 148.91-20.51 148.13-20 147.35-19.48 146.08-18.51L146.08-18.51Q146.08-17.82 146.05-14.06 146.03-10.3 146.1-5.71 146.17-1.12 146.27-0.78L146.27-0.78Q145.83 0.68 144.56 0.68L144.56 0.68Q143.68 0.68 142.88-0.02 142.07-0.73 141.88-1.76L141.88-1.76Q142.8-17.43 143.54-25.44L143.54-25.44 145.73-24.95 145.88-21.68Q149.3-24.51 151.74-24.51L151.74-24.51Q154.43-24.51 156.26-23.29 158.09-22.07 158.09-19.73L158.09-19.73Q158.09-18.99 157.99-18.6ZM175.08-23.54L175.08-23.54 174.59-21.58Q169.85-23.54 167.22-23.54L167.22-23.54Q164.87-23.54 163.92-22.83 162.97-22.12 162.97-19.82L162.97-19.82Q162.97-17.97 164.31-16.75 165.65-15.53 167.56-14.82 169.46-14.11 171.39-13.31 173.32-12.5 174.66-10.94 176.01-9.38 176.01-7.08L176.01-7.08Q176.01-3.96 173.71-1.61 171.42 0.73 167.75 0.78L167.75 0.78Q165.07 0.78 162.72-0.34 160.38-1.46 159.01-3.17L159.01-3.17 160.43-4.64Q161.02-4.39 162.16-3.86 163.31-3.32 163.8-3.15 164.29-2.98 165.24-2.78 166.19-2.59 167.27-2.59L167.27-2.59Q169.56-2.59 171.02-3.61 172.49-4.64 172.49-6.49L172.49-6.49Q172.49-7.71 171.81-8.57 171.12-9.42 170-9.96 168.88-10.5 167.53-10.99 166.19-11.47 164.85-12.08 163.51-12.7 162.38-13.55 161.26-14.4 160.58-15.87 159.89-17.33 159.89-19.34L159.89-19.34Q159.89-22.27 161.48-24.24 163.07-26.22 165.95-26.22L165.95-26.22Q167.07-26.22 168.49-25.88 169.9-25.54 170.73-25.24 171.56-24.95 173.2-24.29 174.83-23.63 175.08-23.54Z" opacity="1" transform="matrix(1,0,0,1,0,0)" fill="#000000" class="undefined-text-0" data-fill-palette-color="primary" id="text-0"></path></svg></g></svg></g><g transform="matrix(1,0,0,1,0,147.59921585714855)"><svg viewBox="0 0 232.209792 27.057488806956524" height="27.057488806956524" width="232.209792"><g transform="matrix(1,0,0,1,0,0)"><svg width="232.209792" viewBox="0.25 -36.25 316.2200012207031 36.849998474121094" height="27.057488806956524" data-palette-color="#000000"><path d="M41.7 0L29.55 0 25.1-20.95 24.9-20.95 20.45 0 8.3 0 0.25-34.4 11.75-34.4 15.7-14.9 15.9-14.9 19.8-34.4 30.7-34.4 34.85-14.9 35.05-14.9 38.75-34.4 49.75-34.4 41.7 0ZM65.35-27Q72.6-27 76.42-23.6 80.25-20.2 80.25-13.2L80.25-13.2 80.25-11.5 60.45-11.5Q60.45-8.65 61.72-7.2 63-5.75 65.75-5.75L65.75-5.75Q68.25-5.75 69.42-6.8 70.6-7.85 70.6-9.6L70.6-9.6 80.25-9.6Q80.25-4.8 76.6-2.1 72.95 0.6 65.95 0.6L65.95 0.6Q58.6 0.6 54.55-2.83 50.5-6.25 50.5-13.2L50.5-13.2Q50.5-20 54.45-23.5 58.4-27 65.35-27L65.35-27ZM65.75-20.65Q61.05-20.65 60.5-16.2L60.5-16.2 70.2-16.2Q70.2-18.25 69.02-19.45 67.85-20.65 65.75-20.65L65.75-20.65ZM137.14 0L125.44 0 123.99-4.85 111.94-4.85 110.49 0 99.19 0 111.74-34.4 124.59-34.4 137.14 0ZM117.89-24.8L114.24-12.55 121.69-12.55 118.09-24.8 117.89-24.8ZM150.89 0L140.94 0 140.94-36.25 150.89-36.25 150.89 0ZM167.54 0L157.59 0 157.59-36.25 167.54-36.25 167.54 0ZM206.13-34.4Q224.18-34.4 224.18-17.2L224.18-17.2Q224.18 0 206.13 0L206.13 0 191.23 0 191.23-34.4 206.13-34.4ZM202.28-26.15L202.28-8.25 205.93-8.25Q212.88-8.25 212.88-15.7L212.88-15.7 212.88-18.7Q212.88-26.15 205.93-26.15L205.93-26.15 202.28-26.15ZM243.08-27Q250.03-27 254.01-23.48 257.98-19.95 257.98-13.2L257.98-13.2Q257.98-6.45 254.01-2.93 250.03 0.6 243.08 0.6L243.08 0.6Q236.13 0.6 232.18-2.9 228.23-6.4 228.23-13.2L228.23-13.2Q228.23-20 232.18-23.5 236.13-27 243.08-27L243.08-27ZM243.08-20.25Q238.18-20.25 238.18-14.6L238.18-14.6 238.18-11.75Q238.18-6.15 243.08-6.15L243.08-6.15Q248.03-6.15 248.03-11.75L248.03-11.75 248.03-14.6Q248.03-20.25 243.08-20.25L243.08-20.25ZM291.68 0L280.63 0 280.63-34.4 291.68-34.4 291.68 0ZM310.87-26.4L316.47-26.4 316.47-19.65 310.87-19.65 310.87-9.6Q310.87-7.8 311.47-6.98 312.07-6.15 313.67-6.15L313.67-6.15 316.47-6.15 316.47-0.3Q315.27 0.1 313.37 0.35 311.47 0.6 310.07 0.6L310.07 0.6Q305.67 0.6 303.3-1 300.92-2.6 300.92-6.45L300.92-6.45 300.92-19.65 297.22-19.65 297.22-26.4 301.32-26.4 303.47-34.4 310.87-34.4 310.87-26.4Z" opacity="1" transform="matrix(1,0,0,1,0,0)" fill="#000000" class="undefined-text-1" data-fill-palette-color="secondary" id="text-1"></path></svg></g></svg></g></svg></g></svg></g><g transform="matrix(1,0,0,1,0,3.997813691970137)"><svg viewBox="0 0 245.65351679999995 166.6610772801648" height="166.6610772801648" width="245.65351679999995"><g><svg xmlns="http://www.w3.org/2000/svg" xmlns:xlink="http://www.w3.org/1999/xlink" version="1.1" x="0" y="0" viewBox="15.211999893188477 26.512998580932617 71.54800415039062 48.54100036621094" style="enable-background:new 0 0 100 100;" xml:space="preserve" height="166.6610772801648" width="245.65351679999995" class="icon-icon-0" data-fill-palette-color="accent" id="icon-0"><g fill="#000000" data-fill-palette-color="accent"><path d="M77.626 75.054H24.348c-5.037 0-9.136-4.098-9.136-9.135V35.648c0-5.037 4.098-9.135 9.136-9.135h53.277c5.037 0 9.135 4.098 9.135 9.135v30.272C86.76 70.957 82.663 75.054 77.626 75.054zM24.348 30.657c-2.752 0-4.992 2.239-4.992 4.991v30.272c0 2.752 2.239 4.991 4.992 4.991h53.277c2.752 0 4.991-2.239 4.991-4.991V35.648c0-2.752-2.239-4.991-4.991-4.991H24.348z" fill="#000000" data-fill-palette-color="accent"></path><path d="M50.882 60.288c-2.122 0-4.244-0.809-5.859-2.424L19.462 32.303c-0.647-0.647-0.647-1.696 0-2.344 0.647-0.647 1.696-0.647 2.344 0l25.561 25.561c1.939 1.938 5.093 1.938 7.032 0l25.769-25.769c0.647-0.647 1.696-0.647 2.344 0 0.647 0.647 0.647 1.696 0 2.344L56.743 57.864C55.127 59.48 53.005 60.288 50.882 60.288z" fill="#000000" data-fill-palette-color="accent"></path><path d="M20.634 74.64c-0.424 0-0.848-0.162-1.172-0.486-0.647-0.647-0.647-1.696 0-2.344l20.571-20.571c0.647-0.647 1.696-0.647 2.344 0 0.647 0.647 0.647 1.696 0 2.344L21.806 74.154C21.482 74.478 21.058 74.64 20.634 74.64z" fill="#000000" data-fill-palette-color="accent"></path><path d="M81.339 74.433c-0.424 0-0.848-0.162-1.172-0.486L59.786 53.565c-0.647-0.647-0.647-1.696 0-2.344s1.696-0.647 2.344 0l20.382 20.382c0.647 0.647 0.647 1.696 0 2.344C82.188 74.271 81.764 74.433 81.339 74.433z" fill="#000000" data-fill-palette-color="accent"></path></g></svg></g></svg></g></svg></g><defs></defs></svg><rect width="395.52" height="103.12017138509783" fill="none" stroke="none" visibility="hidden"></rect></g></svg></g></svg>